<svg xmlns="http://www.w3.org/2000/svg" width="100" height="100" viewBox="0 0 100 100" role="img" aria-label="Lazuli — selo para 32 pixels">
<title>Lazuli — identidade Ex-líbris</title><desc>Assinatura adotada em outubro de 2026. Coruja em selo oval e letreiro em curvas.</desc>
<g fill="none" stroke="#d8ad4a" stroke-width="3.5" stroke-linecap="round" stroke-linejoin="round">
        <rect x="8" y="4" width="84" height="92" rx="42" />
        <path d="M27 29 26 17 42 27Q50 23 58 27L74 17 73 29C83 44 77 65 50 84C23 65 17 44 27 29Z" />
        <path d="M50 37C43 24 27 30 28 40C29 49 41 54 50 57C59 54 71 49 72 40C73 30 57 24 50 37Z" />
        </g>
        <g fill="#d8ad4a"><circle cx="37" cy="39" r="3.2" /><circle cx="63" cy="39" r="3.2" /></g>
        <path fill="#e9edf6" d="M45 53H55L50 61Z" />
</svg>