<svg xmlns="http://www.w3.org/2000/svg" width="512" height="512" viewBox="0 0 512 512" role="img" aria-label="Lazuli — avatar"><title>Lazuli — avatar</title><rect x="0" y="0" width="512" height="512" rx="64" fill="#0f1e3d"/><g transform="translate(96 96) scale(3.2)"><g xmlns="http://www.w3.org/2000/svg" fill="none" stroke="#d8ad4a" stroke-width="2.5" stroke-linecap="round" stroke-linejoin="round">
        <rect x="8" y="4" width="84" height="92" rx="42" />
        <path d="M27 29 26 17 42 27Q50 23 58 27L74 17 73 29C83 44 77 65 50 84C23 65 17 44 27 29Z" />
        <path d="M50 37C43 24 27 30 28 40C29 49 41 54 50 57C59 54 71 49 72 40C73 30 57 24 50 37Z" />
        <path d="M26 49Q30 68 50 74Q70 68 74 49" /></g>
        <g xmlns="http://www.w3.org/2000/svg" fill="#d8ad4a"><circle cx="37" cy="39" r="3.2" /><circle cx="63" cy="39" r="3.2" /></g>
        <path xmlns="http://www.w3.org/2000/svg" fill="#e9edf6" d="M45 53H55L50 61Z" />
</g></svg>