<svg xmlns="http://www.w3.org/2000/svg" width="420" height="120" viewBox="0 0 420 120" role="img" aria-label="Lazuli — Livro aberto">
  <title>Lazuli — Livro aberto</title>
  <desc>Conceito de marca em estudo. Amarelo #D8AD4A. Símbolo e letras em curvas vetoriais.</desc>
  <g transform="translate(8 10)"><g fill="#d8ad4a"><path fill-rule="evenodd" d="M10 16 38 27 48 42V84L18 68Z
        M37 43a8 8 0 1 0-16 0 8 8 0 1 0 16 0Z"/>
      <path fill-rule="evenodd" d="M90 16 62 27 52 42V84L82 68Z
        M79 43a8 8 0 1 0-16 0 8 8 0 1 0 16 0Z"/>
      <path d="M44 53H56L50 64Z"/></g></g><g fill="#142a5f" transform="translate(177.4351 87.9455) scale(0.075325 -0.075325)"><path transform="translate(0 0)" d="M74 756H194V0H74Z"/><path transform="translate(246 0)" d="M370 61H367Q349 29 309.0 8.5Q269 -12 218 -12Q189 -12 157.5 -4.5Q126 3 99.5 20.5Q73 38 55.5 66.5Q38 95 38 137Q38 191 68.5 223.0Q99 255 147.0 272.0Q195 289 253.5 294.5Q312 300 368 300V312Q368 357 335.5 378.5Q303 400 258 400Q220 400 185.0 384.0Q150 368 127 345L65 418Q106 456 159.5 475.0Q213 494 268 494Q332 494 373.5 476.0Q415 458 439.0 429.0Q463 400 472.5 364.0Q482 328 482 292V0H370ZM368 219H341Q312 219 280.0 216.5Q248 214 221.0 205.5Q194 197 176.0 181.5Q158 166 158 139Q158 122 165.5 110.5Q173 99 185.0 92.0Q197 85 212.0 82.0Q227 79 242 79Q304 79 336.0 112.0Q368 145 368 202Z"/><path transform="translate(774 0)" d="M34 106 293 384H46V480H436V374L176 98H448V0H34Z"/><path transform="translate(1234 0)" d="M510 0H396V77H394Q378 41 338.5 13.5Q299 -14 245 -14Q198 -14 164.5 2.5Q131 19 109.5 46.0Q88 73 78.0 108.0Q68 143 68 180V480H188V214Q188 193 191.0 170.0Q194 147 204.0 128.5Q214 110 231.5 98.0Q249 86 278 86Q306 86 327.5 97.5Q349 109 362.5 127.0Q376 145 383.0 168.5Q390 192 390 216V480H510Z"/><path transform="translate(1794 0)" d="M74 756H194V0H74Z"/><path transform="translate(2040 0)" d="M74 480H194V0H74ZM57 643Q57 672 78.5 693.5Q100 715 133 715Q166 715 188.5 694.5Q211 674 211 643Q211 612 188.5 591.5Q166 571 133 571Q100 571 78.5 592.5Q57 614 57 643Z"/></g>
</svg>
